<svg width="60" height="60" viewBox="0 0 60 60" fill="none" xmlns="http://www.w3.org/2000/svg">
<path d="M32.3389 25.3995H33.6984V20.6899C33.6984 17.9385 34.3459 15.8346 35.6406 14.378C36.9354 12.889 38.8936 12.1445 41.5156 12.1445C44.1374 12.1445 46.0956 12.889 47.3904 14.378C48.6851 15.8346 49.3326 17.9385 49.3326 20.6899V23.5059H44.2831V20.35C44.2831 19.12 44.0564 18.2622 43.6034 17.7767C43.1501 17.2588 42.5029 16.9998 41.6611 16.9998C40.8196 16.9998 40.1721 17.2588 39.7191 17.7767C39.2659 18.2622 39.0394 19.12 39.0394 20.35V25.3995H46.5164V28.07H39.0394V30.7403H46.5164V33.4108H39.0394V38.703C39.0394 39.933 39.2659 40.7908 39.7191 41.2763C40.1721 41.7618 40.8196 42.0045 41.6611 42.0045C42.5029 42.0045 43.1501 41.7618 43.6034 41.2763C44.0564 40.7908 44.2831 39.933 44.2831 38.703V35.3043H49.3326V38.3633C49.3326 41.1145 48.6851 43.2348 47.3904 44.7235C46.0956 46.1803 44.1374 46.9085 41.5156 46.9085C38.8936 46.9085 36.9354 46.1803 35.6406 44.7235C34.3459 43.2348 33.6984 41.1145 33.6984 38.3633V33.4108H32.3389V30.7403H33.6984V28.07H32.3389V25.3995Z" fill="#20CC98"/>
<path d="M11.3761 21.1789C11.3761 18.8807 11.8455 17.0357 12.7842 15.6438C13.7228 14.2196 15.1309 13.2971 17.0083 12.8763V10.3516H21.378V12.8763C23.2878 13.2647 24.712 14.1711 25.6507 15.5953C26.6217 16.9871 27.1072 18.8483 27.1072 21.1789V22.2471H22.0578V20.839C22.0578 19.609 21.815 18.7512 21.3295 18.2657C20.8763 17.7478 20.229 17.4889 19.3874 17.4889C18.5458 17.4889 17.8822 17.7478 17.3967 18.2657C16.9435 18.7512 16.717 19.609 16.717 20.839C16.717 22.0043 16.9759 23.0077 17.4938 23.8493C18.0117 24.6909 18.6591 25.484 19.4359 26.2285C20.2128 26.9405 21.0382 27.6527 21.9121 28.3647C22.8184 29.0445 23.66 29.8212 24.4369 30.6952C25.2137 31.5692 25.861 32.589 26.379 33.7542C26.897 34.887 27.1557 36.2627 27.1557 37.8812C27.1557 40.2117 26.6702 42.089 25.6992 43.5132C24.7282 44.9375 23.2878 45.8437 21.378 46.2322V48.7085H17.0083V46.2322C15.0661 45.8437 13.6096 44.9375 12.6385 43.5132C11.6998 42.089 11.2305 40.2117 11.2305 37.8812V35.5507H16.28V38.221C16.28 39.451 16.5227 40.3087 17.0083 40.7942C17.5262 41.28 18.2059 41.5227 19.0475 41.5227C19.8891 41.5227 20.5526 41.28 21.0382 40.7942C21.5561 40.3087 21.815 39.451 21.815 38.221C21.815 37.0557 21.5561 36.0522 21.0382 35.2107C20.5203 34.3692 19.8729 33.5922 19.0961 32.8802C18.3192 32.1357 17.4776 31.4235 16.5713 30.7437C15.6973 30.0317 14.8719 29.2387 14.0951 28.3647C13.3182 27.4907 12.6709 26.4875 12.153 25.3545C11.6351 24.1892 11.3761 22.7973 11.3761 21.1789Z" fill="#20CC98"/>
</svg>
